<?xml version="1.0" encoding="UTF-8"?>
<svg width="32px" height="24px" viewBox="0 0 32 24" version="1.1" xmlns="http://www.w3.org/2000/svg" xmlns:xlink="http://www.w3.org/1999/xlink">
    <!-- Generator: Sketch 47.1 (45422) - http://www.bohemiancoding.com/sketch -->
    <title>du logo</title>
    <desc>Created with Sketch.</desc>
    <defs>
        <polygon id="path-1" points="3.083 0.5019 3.083 2.9999 0.5631 2.9999 0.5631 0.5019 3.083 0.5019"></polygon>
    </defs>
    <g id="Symbols" stroke="none" stroke-width="1" fill="none" fill-rule="evenodd">
        <g id="global-navbar/mobile/search" transform="translate(-144.000000, -12.000000)">
            <g id="Header">
                <g id="du-logo" transform="translate(144.000000, 12.000000)">
                    <g id="Group-3" fill="#00A9CE">
                        <path d="M31.0828,15.0009 C31.0808,19.9739 27.0178,23.9999 22.0078,23.9999 C19.4768,23.9999 17.1858,22.9709 15.5388,21.3199 C13.8958,22.9709 11.6048,23.9999 9.0728,23.9999 C4.0568,23.9999 -0.0002,19.9719 -0.0002,15.0009 C-0.0002,10.0279 4.0568,6.0009 9.0728,6.0009 C10.4448,6.0009 11.7518,6.2999 12.9158,6.8459 L12.9158,2.5909 C12.9158,1.1589 14.0888,-0.0001 15.5288,-0.0001 C16.9758,-0.0001 18.1448,1.1589 18.1448,2.5909 L18.1448,15.0009 C18.1448,17.1089 19.8858,18.8079 22.0078,18.8079 C24.1298,18.8079 25.8508,17.1089 25.8528,15.0009 L25.8528,11.7079 C25.8528,10.2789 27.0238,9.1139 28.4688,9.1139 C29.9058,9.1139 31.0808,10.2789 31.0808,11.7079 L31.0828,15.0009 Z M5.2288,15.0009 C5.2288,17.1089 6.9508,18.8079 9.0728,18.8079 C11.1958,18.8079 12.9158,17.1089 12.9158,15.0009 C12.9158,12.8929 11.1958,11.1879 9.0728,11.1879 C6.9508,11.1879 5.2288,12.8929 5.2288,15.0009 L5.2288,15.0009 Z" id="Fill-1"></path>
                    </g>
                    <g id="Group-6" transform="translate(28.000000, 21.000000)">
                        <mask id="mask-2" fill="white">
                            <use xlink:href="#path-1"></use>
                        </mask>
                        <g id="Clip-5"></g>
                        <path d="M1.8221,0.7519 C1.2651,0.7519 0.8151,1.1949 0.8151,1.7479 C0.8151,2.2989 1.2651,2.7509 1.8221,2.7509 C2.3801,2.7509 2.8331,2.2989 2.8331,1.7479 C2.8331,1.1949 2.3801,0.7519 1.8221,0.7519 M3.0831,1.7479 C3.0831,2.4419 2.5201,2.9999 1.8221,2.9999 C1.1321,2.9999 0.5631,2.4419 0.5631,1.7479 C0.5631,1.0569 1.1321,0.5019 1.8221,0.5019 C2.5201,0.5019 3.0831,1.0569 3.0831,1.7479" id="Fill-4" fill="#00A9CE" mask="url(#mask-2)"></path>
                    </g>
                    <path d="M29.8621,22.287 L29.6401,22.287 L29.6401,22.693 L29.8621,22.693 C29.9961,22.693 30.0891,22.602 30.0891,22.491 C30.0891,22.376 29.9961,22.287 29.8621,22.287 M30.0891,23.425 L29.8111,22.891 L29.6401,22.891 L29.6401,23.425 L29.3871,23.425 L29.3871,22.076 L29.8941,22.076 C30.1531,22.076 30.3331,22.266 30.3331,22.491 C30.3331,22.682 30.2131,22.803 30.0681,22.854 L30.3641,23.425 L30.0891,23.425" id="Fill-7" fill="#00A9CE"></path>
                </g>
            </g>
        </g>
    </g>
</svg>