<svg xmlns="http://www.w3.org/2000/svg" viewBox="0 0 841.9 209.182">
  <defs>
    <style>
      .cls-1 {
        fill: #fff;
      }
    </style>
  </defs>
  <g id="Unified_AI_logo_white" data-name="Unified AI logo white" transform="translate(-292.1 -246.9)">
    <path id="Path_55" data-name="Path 55" class="cls-1" d="M404.051,302.517h20.29v85.216c0,19.335-6.206,35.567-18.857,48.456q-18.619,19.335-47.263,19.335c-19.1,0-34.85-6.445-47.5-19.335C298.306,423.3,292.1,407.069,292.1,387.734V302.517h20.29v87.6c0,12.651,4.535,23.393,13.606,32.463a45.153,45.153,0,0,0,32.225,13.367c12.413,0,22.915-4.535,31.986-13.367,9.071-9.071,13.845-20.051,13.845-32.463v-87.6Zm105.983-3.342c-19.1,0-34.85,6.445-47.5,19.335s-18.857,28.883-18.857,48.218v85.216h20.29V364.58c0-12.651,4.535-23.393,13.606-32.463a44.964,44.964,0,0,1,32.463-13.606c12.412,0,22.915,4.535,31.986,13.606s13.845,20.051,13.845,32.463v87.365h20.29V366.728c0-19.335-6.206-35.328-18.857-48.218S528.892,299.176,510.034,299.176ZM597.16,451.944h19.573V302.517H597.16Zm97.39-149.427H660.178v-5.729c0-22.2,11.458-33.418,34.373-33.418V246.9c-36.521,0-54.663,15.516-54.663,46.547V452.183h20.29V321.136h34.373V451.944h19.574V302.517H694.551ZM867.37,328.3l-95,95a55.492,55.492,0,0,0,39.863,12.89c14.8-1.193,27.689-6.922,38.192-17.9l11.458,11.458c-14.322,14.561-30.315,25.3-52.037,25.78-21.961.239-40.579-6.922-55.856-21.722-16.232-15.277-24.348-34.612-24.109-57.527.239-23.154,8.354-42.011,25.064-57.05,15.038-13.129,32.941-19.574,54.185-19.335,20.528.477,37.476,7.4,50.6,20.528Zm-26.734.955c-11.935-7.877-24.586-11.219-37.715-10.025-13.367,1.193-25.3,6.684-35.567,16.709a55.921,55.921,0,0,0-17.664,35.805c-1.432,13.606,2.148,26.5,10.026,38.67Zm180.7-78.533V377.947c.477,21.483-7.161,40.1-23.154,55.856-15.993,15.516-34.612,23.154-56.095,22.2-20.767-.477-38.67-8.355-52.992-23.631s-21.483-33.418-21.483-54.185c0-21.722,7.877-40.579,23.393-56.095,15.516-15.754,34.134-23.393,55.617-22.438,21.961.716,40.341,9.787,55.14,26.5V250.958h19.574Zm-20.29,125.8c-.239-15.754-5.968-29.122-16.709-40.341s-23.631-16.709-39.147-16.709c-15.754-.239-29.36,5.49-40.579,16.709S887.9,360.761,887.66,376.754q-.358,23.632,15.754,41.534c10.742,11.7,23.631,17.9,39.147,18.38,16.47.716,30.315-4.774,42.011-16.948C996.031,407.069,1001.521,392.985,1001.043,376.515Z" transform="translate(0 0)"/>
    <g id="Group_30" data-name="Group 30" transform="translate(1053.319 260.983)">
      <path id="Path_56" data-name="Path 56" class="cls-1" d="M673.063,331.81v.477a3.275,3.275,0,0,1-3.1,3.1,2.167,2.167,0,0,1-1.671-.716,6.326,6.326,0,0,1-1.194-1.432L659.934,310.8H624.129l-6.922,22.438a6.324,6.324,0,0,1-1.194,1.432,2.71,2.71,0,0,1-1.91.716,3.275,3.275,0,0,1-3.1-3.1v-.955l10.742-35.805c3.581-11.935,7.4-23.87,10.98-35.805a9.375,9.375,0,0,1,3.581-5.013,9.712,9.712,0,0,1,5.729-1.91A9.9,9.9,0,0,1,648,254.71a8.23,8.23,0,0,1,3.342,5.013Zm-27.928-69.7a4.281,4.281,0,0,0-1.193-1.671,2.579,2.579,0,0,0-1.671-.716,2.167,2.167,0,0,0-1.671.716,4.281,4.281,0,0,0-1.193,1.671q-3.223,10.383-6.445,21.483c-2.148,7.4-4.535,14.561-6.445,21.483H658.5Z" transform="translate(-611 -252.8)"/>
      <path id="Path_57" data-name="Path 57" class="cls-1" d="M642,256.1a2.327,2.327,0,0,1,.955-2.148,2.768,2.768,0,0,1,2.387-.955,3.065,3.065,0,0,1,2.387.955,4.241,4.241,0,0,1,.955,2.387V332.01a3.263,3.263,0,0,1-3.342,3.342,3.065,3.065,0,0,1-2.387-.955,4.289,4.289,0,0,1-.955-2.148Z" transform="translate(-568.002 -252.523)"/>
    </g>
  </g>
</svg>
