<svg xmlns="http://www.w3.org/2000/svg" viewBox="0 0 352.7 87.633">
  <defs>
    <style>
      .cls-1 {
        fill: #1e87f0;
      }
    </style>
  </defs>
  <g id="UnifiedAIlogoblue" transform="translate(-292.1 -246.9)">
    <path id="Path_50" data-name="Path 50" class="cls-1" d="M339,270.2h8.5v35.7c0,8.1-2.6,14.9-7.9,20.3q-7.8,8.1-19.8,8.1a26.685,26.685,0,0,1-19.9-8.1c-5.2-5.4-7.8-12.2-7.8-20.3V270.2h8.5v36.7a18.512,18.512,0,0,0,5.7,13.6,18.916,18.916,0,0,0,13.5,5.6,18.523,18.523,0,0,0,13.4-5.6,18.772,18.772,0,0,0,5.8-13.6V270.2Zm44.4-1.4a26.685,26.685,0,0,0-19.9,8.1c-5.3,5.4-7.9,12.1-7.9,20.2v35.7h8.5V296.2a18.512,18.512,0,0,1,5.7-13.6,18.837,18.837,0,0,1,13.6-5.7,18.232,18.232,0,0,1,13.4,5.7,18.772,18.772,0,0,1,5.8,13.6v36.6h8.5V297.1c0-8.1-2.6-14.8-7.9-20.2A26.618,26.618,0,0,0,383.4,268.8Zm36.5,64h8.2V270.2h-8.2Zm40.8-62.6H446.3v-2.4c0-9.3,4.8-14,14.4-14v-6.9c-15.3,0-22.9,6.5-22.9,19.5v66.5h8.5V278h14.4v54.8h8.2V270.2h-8.2ZM533.1,281l-39.8,39.8a23.247,23.247,0,0,0,16.7,5.4,24.091,24.091,0,0,0,16-7.5l4.8,4.8c-6,6.1-12.7,10.6-21.8,10.8a31.8,31.8,0,0,1-23.4-9.1,31.369,31.369,0,0,1-10.1-24.1c.1-9.7,3.5-17.6,10.5-23.9a32.639,32.639,0,0,1,22.7-8.1c8.6.2,15.7,3.1,21.2,8.6Zm-11.2.4a24.141,24.141,0,0,0-15.8-4.2,23.878,23.878,0,0,0-14.9,7,23.427,23.427,0,0,0-7.4,15,24.51,24.51,0,0,0,4.2,16.2Zm75.7-32.9v53.3a30.69,30.69,0,0,1-9.7,23.4c-6.7,6.5-14.5,9.7-23.5,9.3a30.393,30.393,0,0,1-22.2-9.9,33.1,33.1,0,0,1,.8-46.2c6.5-6.6,14.3-9.8,23.3-9.4,9.2.3,16.9,4.1,23.1,11.1V248.6h8.2Zm-8.5,52.7a24.173,24.173,0,0,0-7-16.9,21.708,21.708,0,0,0-16.4-7,22.794,22.794,0,0,0-17,7,23.5,23.5,0,0,0-7.1,17,24.624,24.624,0,0,0,6.6,17.4,22.392,22.392,0,0,0,16.4,7.7,21.936,21.936,0,0,0,17.6-7.1A24.84,24.84,0,0,0,589.1,301.2Z"/>
    <g id="Group_29" data-name="Group 29">
      <path id="Path_51" data-name="Path 51" class="cls-1" d="M637,285.9v.2a1.372,1.372,0,0,1-1.3,1.3.908.908,0,0,1-.7-.3,2.65,2.65,0,0,1-.5-.6l-3-9.4h-15l-2.9,9.4a2.65,2.65,0,0,1-.5.6,1.135,1.135,0,0,1-.8.3,1.372,1.372,0,0,1-1.3-1.3v-.4l4.5-15c1.5-5,3.1-10,4.6-15a3.928,3.928,0,0,1,1.5-2.1,4.069,4.069,0,0,1,2.4-.8,4.147,4.147,0,0,1,2.5.8,3.447,3.447,0,0,1,1.4,2.1Zm-11.7-29.2a1.794,1.794,0,0,0-.5-.7,1.08,1.08,0,0,0-.7-.3.908.908,0,0,0-.7.3,1.793,1.793,0,0,0-.5.7q-1.35,4.35-2.7,9c-.9,3.1-1.9,6.1-2.7,9h13.4Z"/>
      <path id="Path_52" data-name="Path 52" class="cls-1" d="M642,254.3a.975.975,0,0,1,.4-.9,1.159,1.159,0,0,1,1-.4,1.284,1.284,0,0,1,1,.4,1.777,1.777,0,0,1,.4,1v31.7a1.367,1.367,0,0,1-1.4,1.4,1.284,1.284,0,0,1-1-.4,1.8,1.8,0,0,1-.4-.9Z"/>
    </g>
  </g>
</svg>
