<?xml version="1.0" encoding="utf-8"?>
<!-- Generator: Adobe Illustrator 21.0.0, SVG Export Plug-In . SVG Version: 6.00 Build 0)  -->
<svg version="1.1" id="Ebene_1" xmlns="http://www.w3.org/2000/svg" xmlns:xlink="http://www.w3.org/1999/xlink" x="0px" y="0px"
	 viewBox="0 0 841.9 595.3" style="enable-background:new 0 0 841.9 595.3;" xml:space="preserve">
<style type="text/css">
	.st0{fill:#FFFFFF;}
</style>
<path class="st0" d="M339,270.2h8.5v35.7c0,8.1-2.6,14.9-7.9,20.3c-5.2,5.4-11.8,8.1-19.8,8.1c-8,0-14.6-2.7-19.9-8.1
	c-5.2-5.4-7.8-12.2-7.8-20.3v-35.7h8.5v36.7c0,5.3,1.9,9.8,5.7,13.6c3.8,3.7,8.4,5.6,13.5,5.6c5.2,0,9.6-1.9,13.4-5.6
	c3.8-3.8,5.8-8.4,5.8-13.6V270.2z M383.4,268.8c-8,0-14.6,2.7-19.9,8.1c-5.3,5.4-7.9,12.1-7.9,20.2v35.7h8.5v-36.6
	c0-5.3,1.9-9.8,5.7-13.6c3.8-3.8,8.5-5.7,13.6-5.7c5.2,0,9.6,1.9,13.4,5.7c3.8,3.8,5.8,8.4,5.8,13.6v36.6h8.5v-35.7
	c0-8.1-2.6-14.8-7.9-20.2C397.9,271.5,391.3,268.8,383.4,268.8z M419.9,332.8h8.2v-62.6h-8.2V332.8z M460.7,270.2h-14.4v-2.4
	c0-9.3,4.8-14,14.4-14v-6.9c-15.3,0-22.9,6.5-22.9,19.5v66.5h8.5V278h14.4v54.8h8.2v-62.6h-6.7H460.7z M533.1,281l-39.8,39.8
	c4.9,4,10.5,5.8,16.7,5.4c6.2-0.5,11.6-2.9,16-7.5l4.8,4.8c-6,6.1-12.7,10.6-21.8,10.8c-9.2,0.1-17-2.9-23.4-9.1
	c-6.8-6.4-10.2-14.5-10.1-24.1c0.1-9.7,3.5-17.6,10.5-23.9c6.3-5.5,13.8-8.2,22.7-8.1c8.6,0.2,15.7,3.1,21.2,8.6L533.1,281z
	 M521.9,281.4c-5-3.3-10.3-4.7-15.8-4.2c-5.6,0.5-10.6,2.8-14.9,7c-4.4,4.2-6.8,9.2-7.4,15c-0.6,5.7,0.9,11.1,4.2,16.2L521.9,281.4z
	 M597.6,248.5v53.3c0.2,9-3,16.8-9.7,23.4c-6.7,6.5-14.5,9.7-23.5,9.3c-8.7-0.2-16.2-3.5-22.2-9.9c-6-6.4-9-14-9-22.7
	c0-9.1,3.3-17,9.8-23.5c6.5-6.6,14.3-9.8,23.3-9.4c9.2,0.3,16.9,4.1,23.1,11.1v-31.5H597.6z M589.1,301.2c-0.1-6.6-2.5-12.2-7-16.9
	c-4.5-4.7-9.9-7-16.4-7c-6.6-0.1-12.3,2.3-17,7c-4.7,4.7-7,10.3-7.1,17c-0.1,6.6,2.1,12.4,6.6,17.4c4.5,4.9,9.9,7.5,16.4,7.7
	c6.9,0.3,12.7-2,17.6-7.1C587,314,589.3,308.1,589.1,301.2z"/>
<g>
	<path class="st0" d="M637,285.9c0,0,0,0.1,0,0.1s0,0.1,0,0.1c0,0.3-0.1,0.6-0.4,0.9c-0.3,0.3-0.6,0.4-0.9,0.4
		c-0.3,0-0.5-0.1-0.7-0.3s-0.4-0.4-0.5-0.6l-3-9.4h-15l-2.9,9.4c-0.1,0.2-0.3,0.4-0.5,0.6c-0.2,0.2-0.5,0.3-0.8,0.3
		c-0.3,0-0.6-0.1-0.9-0.4c-0.3-0.3-0.4-0.6-0.4-0.9c0-0.2,0-0.3,0-0.4c1.5-5,3-10,4.5-15c1.5-5,3.1-10,4.6-15
		c0.3-0.9,0.7-1.5,1.5-2.1c0.7-0.5,1.5-0.8,2.4-0.8c1,0,1.8,0.3,2.5,0.8s1.2,1.2,1.4,2.1L637,285.9z M625.3,256.7
		c-0.1-0.3-0.3-0.5-0.5-0.7s-0.5-0.3-0.7-0.3c-0.3,0-0.5,0.1-0.7,0.3c-0.2,0.2-0.4,0.4-0.5,0.7c-0.9,2.9-1.8,5.9-2.7,9
		s-1.9,6.1-2.7,9h13.4L625.3,256.7z"/>
	<path class="st0" d="M642,254.3c0-0.4,0.1-0.7,0.4-0.9c0.2-0.3,0.6-0.4,1-0.4s0.7,0.1,1,0.4c0.2,0.3,0.4,0.6,0.4,1v31.7
		c0,0.4-0.1,0.8-0.4,1c-0.2,0.3-0.6,0.4-1,0.4s-0.7-0.1-1-0.4c-0.2-0.3-0.4-0.6-0.4-0.9V254.3z"/>
</g>
</svg>
